#!OML:ASF F:\VICON\USERDATA\INSTALL\rory3\rory3.ASF
:FULLY-SPECIFIED
:DEGREES
1
root 4.81955 17.7253 -29.22980000000004 -2.0604199999999997 0.8434120000000047 0.19426100000000712
lfemur 12.094099999999964 -4.619050000000001 -25.409499999999994
ltibia 32.768
lfoot -3.6198 -12.823899999999984
ltoes -13.191799999999992
rfemur -28.104399999999977 4.91165 21.915299999999995
rtibia 28.22869999999999
rfoot -2.3794199999999917 -3.968690000000001
rtoes 8.303110000000009
lowerback 1.0 -1.8000199999999948 -1.0332000000000021
upperback 1.2772200000000007 -2.4067400000000068 2.089420000000001
thorax -4.69726 -1.15272 3.1219299999999994
lowerneck -20.022399999999998 -2.9861099999999996 -1.2028900000000005
upperneck 19.3432 -3.6912199999999995 -0.33351899999999945
head 9.423129999999999 -1.8480499999999997 -0.427649000000001
lclavicle 3.4936399999999986e-14 3.1805499999999996e-15
lhumerus -24.993399999999994 -2.6722300000000034 83.7415
lradius 31.890400000000007
lwrist 6.916179999999999
lhand -27.9846 20.8815
lfingers 7.12502
lthumb -1.371080000000001 50.8569
rclavicle 3.4936399999999986e-14 3.1805499999999996e-15
rhumerus -32.9217 -27.80840000000002 -74.3384
rradius 20.799799999999987
rwrist 10.2024
rhand -19.539700000000003 1.0
rfingers 7.12502
rthumb 6.784129999999998 -8.440429999999997
2
root 4.737230000000001 17.8649 -28.410199999999996 -2.48337 1.0249399999999973 -0.2868960000000045
lfemur 7.0521499999999815 -2.345349999999999 -23.10010000000001
ltibia 41.016199999999984
lfoot 15.120599999999982 -18.4068
ltoes -4.616180000000001
rfemur -25.795099999999998 4.37831 23.380499999999998
rtibia 30.416800000000002
rfoot -3.2335900000000057 -3.019840000000002
rtoes 14.233299999999982
lowerback 1.0 -1.7089899999999967 -0.8523169999999994
upperback 1.2620199999999997 -2.253109999999996 2.235480000000001
thorax -5.12861 -1.0717900000000011 3.1824999999999983
lowerneck -21.47470000000001 -3.0188199999999994 -0.9582360000000011
upperneck 20.0918 -3.74479 -0.5546320000000029
head 9.939869999999999 -1.8725199999999997 -0.586029000000001
lclavicle -8.398650000000009e-15 1.8288199999999996e-14
lhumerus -26.14370000000001 -2.234450000000004 84.2108
lradius 31.487899999999996
lwrist 7.534329999999995
lhand -27.1587 22.7104
lfingers 7.12502
lthumb -0.5733250000000001 52.6894
rclavicle -8.398650000000009e-15 1.8288199999999996e-14
rhumerus -33.2432 -29.097099999999983 -73.60910000000001
rradius 20.2658
rwrist 11.217600000000006
rhand -19.2654 1.0
rfingers 7.12502
rthumb 7.0490099999999964 -9.70275
3
root 4.677950000000001 17.9556 -27.660800000000023 -2.811259999999999 0.30615799999999416 -1.8641700000000005
lfemur 1.8322500000000037 -1.4257 -20.0867
ltibia 50.257700000000014
lfoot 27.355400000000056 -22.204300000000043
ltoes 6.712510000000027
rfemur -23.165500000000012 5.2596500000000015 25.852
rtibia 30.897099999999995
rfoot -3.7403200000000014 -2.890530000000009
rtoes 8.88556
lowerback 1.0 -1.6203 0.809963
upperback 1.2656899999999998 -1.908460000000002 2.457220000000001
thorax -5.19299 -0.9333619999999985 2.423050000000001
lowerneck -20.273000000000003 -3.1778300000000006 -1.4237900000000006
upperneck 20.190000000000005 -3.9598999999999998 -0.059516600000001585
head 9.77914 -1.9534600000000002 -0.3486199999999993
lclavicle 7.951389999999999e-16 1.908329999999997e-14
lhumerus -27.71930000000001 -2.4053499999999985 84.4749
lradius 31.635299999999994
lwrist 7.243010000000002
lhand -26.3261 24.688499999999998
lfingers 7.12502
lthumb 0.2307699999999986 54.6681
rclavicle 7.951389999999999e-16 1.908329999999997e-14
rhumerus -33.42400000000001 -27.891100000000016 -74.13799999999999
rradius 20.135000000000005
rwrist 10.502699999999992
rhand -17.0153 1.0
rfingers 7.12502
rthumb 9.22056 -6.72991
4
root 4.6298 18.0356 -26.938700000000026 -2.9064700000000014 -0.3863699999999999 -2.9725699999999993
lfemur -4.21936 0.32265399999999955 -17.870400000000004
ltibia 58.521699999999996
lfoot 29.078800000000047 -22.006399999999967
ltoes 8.712309999999995
rfemur -20.459700000000012 6.2514999999999965 27.630199999999995
rtibia 31.090100000000003
rfoot -5.745809999999999 -3.52714
rtoes 9.729569999999995
lowerback 1.0 -0.707222 2.2947699999999993
upperback 2.58535 -0.5383350000000017 2.02309
thorax -4.307369999999999 -0.28464100000000003 0.9063450000000002
lowerneck -27.258399999999988 -3.540090000000001 0.40230600000000183
upperneck 22.277899999999995 -5.038180000000003 -0.3139250000000009
head 11.771300000000007 -2.2600799999999985 -1.0727299999999982
lclavicle 8.597440000000012e-15 -3.260070000000005e-14
lhumerus -24.783600000000003 -5.25472 84.5982
lradius 30.352899999999998
lwrist 6.02941
lhand -24.5892 30.68269999999999
lfingers 7.12502
lthumb 1.9083300000000012 60.65390000000001
rclavicle 8.597440000000012e-15 -3.260070000000005e-14
rhumerus -29.8714 -30.63340000000003 -76.0059
rradius 19.526700000000005
rwrist 11.77739999999999
rhand -16.7436 1.0
rfingers 7.12502
rthumb 9.482709999999999 -6.214790000000001
5
root 4.59421 18.0759 -26.24740000000009 -3.1986999999999988 -0.39859800000000134 -3.7756700000000016
lfemur -9.87811 1.8962300000000045 -16.526300000000006
ltibia 64.66610000000006
lfoot 11.826200000000004 -13.529300000000013
ltoes 15.47870000000002
rfemur -17.482400000000005 6.495409999999996 28.9858
rtibia 31.016099999999998
rfoot -8.427340000000001 -4.2831800000000015
rtoes 11.692000000000005
lowerback 1.0 -1.2001400000000002 2.56296
upperback 1.1455699999999998 -1.0549700000000009 2.852590000000002
thorax -5.877209999999998 -0.5469819999999997 1.741029999999999
lowerneck -19.5159 -3.1556900000000003 -1.89847
upperneck 20.129299999999997 -3.883689999999999 0.2975520000000001
head 9.638339999999998 -1.9166599999999996 -0.12273399999999958
lclavicle -1.5157299999999993e-14 6.361110000000008e-15
lhumerus -29.202699999999997 -1.290160000000001 85.2613
lradius 29.908
lwrist 4.54994
lhand -30.225199999999997 17.19400000000001
lfingers 7.12502
lthumb -3.5349199999999987 47.14450000000001
rclavicle -1.5157299999999993e-14 6.361110000000008e-15
rhumerus -31.4453 -23.875299999999996 -76.185
rradius 20.231100000000012
rwrist 10.2024
rhand -17.0327 1.0
rfingers 7.12502
rthumb 9.20379 -7.6519
6
root 4.580709999999999 18.1271 -25.56299999999998 -3.3645699999999987 -1.2841900000000006 -4.315969999999996
lfemur -14.57599999999999 3.2220199999999966 -15.801499999999995
ltibia 67.2509
lfoot 4.968599999999989 -10.80820000000001
ltoes -20.645700000000005
rfemur -14.406299999999998 7.100420000000007 30.083599999999993
rtibia 30.426900000000003
rfoot -9.864780000000003 -4.542579999999999
rtoes 11.720199999999991
lowerback 1.0 -0.9612870000000027 2.999569999999994
upperback 0.9818869999999995 -0.6674349999999986 3.015269999999999
thorax -5.983880000000001 -0.36712499999999804 1.5992099999999998
lowerneck -17.3938 -3.0268300000000004 -2.340679999999999
upperneck 19.7504 -3.62329 0.279325
head 9.12637 -1.8429600000000002 0.015784400000000032
lclavicle -7.305339999999993e-15 -1.4312500000000018e-14
lhumerus -30.7742 2.3628399999999994 84.6149
lradius 29.415
lwrist 2.353159999999995
lhand -29.587900000000005 21.2997
lfingers 7.12502
lthumb -2.9194699999999965 51.2595
rclavicle -7.305339999999993e-15 -1.4312500000000018e-14
rhumerus -30.630799999999997 -21.050900000000002 -77.0289
rradius 20.428100000000008
rwrist 9.271879999999994
rhand -14.069200000000002 1.0
rfingers 7.12502
rthumb 12.062399999999995 -9.622480000000003
